<?xml version="1.0" encoding="utf-8"?>
<!-- Generator: Adobe Illustrator 27.2.0, SVG Export Plug-In . SVG Version: 6.00 Build 0)  -->
<svg version="1.1" id="Layer_1" xmlns="http://www.w3.org/2000/svg" xmlns:xlink="http://www.w3.org/1999/xlink" x="0px" y="0px"
	 viewBox="0 0 129.1 72" style="enable-background:new 0 0 129.1 72;" xml:space="preserve">
<style type="text/css">
	.st0{fill:none;stroke:#000000;stroke-width:0.05;stroke-miterlimit:10;}
</style>
<g>
	<line class="st0" x1="37.1" y1="11" x2="35.4" y2="62.4"/>
	<line class="st0" x1="37.1" y1="11" x2="28.8" y2="10"/>
	<line class="st0" x1="37.8" y1="9.7" x2="36.1" y2="62.4"/>
	<line class="st0" x1="37.8" y1="9.7" x2="37.1" y2="11"/>
	<line class="st0" x1="51.3" y1="11.4" x2="37.8" y2="9.7"/>
	<line class="st0" x1="28.9" y1="8.5" x2="13.7" y2="6.6"/>
	<line class="st0" x1="13.7" y1="6.6" x2="10.1" y2="62.4"/>
	<line class="st0" x1="104.1" y1="27.8" x2="106" y2="62.4"/>
	<line class="st0" x1="104.1" y1="27.8" x2="101" y2="27.5"/>
	<line class="st0" x1="105.8" y1="27.2" x2="107.8" y2="62.4"/>
	<line class="st0" x1="105.8" y1="27.2" x2="104.1" y2="27.8"/>
	<line class="st0" x1="113.2" y1="27.9" x2="105.8" y2="27.2"/>
	<line class="st0" x1="100.9" y1="26.7" x2="97.9" y2="26.4"/>
	<line class="st0" x1="115.4" y1="62.4" x2="113.2" y2="27.9"/>
	<line class="st0" x1="89" y1="22.9" x2="90.3" y2="59.4"/>
	<line class="st0" x1="87.5" y1="23.6" x2="83.3" y2="23.2"/>
	<line class="st0" x1="89" y1="22.9" x2="87.5" y2="23.6"/>
	<line class="st0" x1="89" y1="22.9" x2="97.8" y2="23.8"/>
	<line class="st0" x1="83.3" y1="22.2" x2="78" y2="21.6"/>
	<line class="st0" x1="87.5" y1="23.6" x2="88.6" y2="59.4"/>
	<line class="st0" x1="90.3" y1="59.4" x2="90.4" y2="62.4"/>
	<line class="st0" x1="88.7" y1="62.4" x2="88.6" y2="59.4"/>
	<line class="st0" x1="66" y1="18.2" x2="60.2" y2="17.6"/>
	<line class="st0" x1="67.2" y1="17.3" x2="66" y2="18.2"/>
	<line class="st0" x1="77.9" y1="18.5" x2="67.2" y2="17.3"/>
	<line class="st0" x1="60.2" y1="16.4" x2="51.3" y2="15.3"/>
	<path class="st0" d="M67.5,62.4"/>
	<line class="st0" x1="67.2" y1="17.3" x2="67.5" y2="62.4"/>
	<path class="st0" d="M66.2,62.4"/>
	<line class="st0" x1="66" y1="18.2" x2="66.2" y2="62.4"/>
	<line class="st0" x1="28.9" y1="8.5" x2="28.8" y2="10"/>
	<line class="st0" x1="28.8" y1="10" x2="26.5" y2="62.4"/>
	<line class="st0" x1="51.3" y1="15.3" x2="50.6" y2="62.4"/>
	<path class="st0" d="M50.6,62.4"/>
	<line class="st0" x1="51.3" y1="11.4" x2="51.3" y2="15.3"/>
	<line class="st0" x1="100.9" y1="26.7" x2="102.7" y2="62.4"/>
	<line class="st0" x1="101" y1="27.5" x2="100.9" y2="26.7"/>
	<line class="st0" x1="83.3" y1="23.2" x2="83.3" y2="22.2"/>
	<line class="st0" x1="83.3" y1="23.2" x2="84.4" y2="62.4"/>
	<line class="st0" x1="97.9" y1="26.4" x2="99.5" y2="62.4"/>
	<line class="st0" x1="97.9" y1="26.4" x2="97.8" y2="23.8"/>
	<line class="st0" x1="60.2" y1="16.4" x2="60.2" y2="17.6"/>
	<line class="st0" x1="60.2" y1="17.6" x2="60.1" y2="62.4"/>
	<path class="st0" d="M60.1,62.4"/>
	<line class="st0" x1="78" y1="21.6" x2="78.8" y2="62.4"/>
	<line class="st0" x1="78" y1="21.6" x2="77.9" y2="18.5"/>
	<line class="st0" x1="10.1" y1="62.4" x2="0" y2="62.4"/>
	<line class="st0" x1="10.1" y1="62.4" x2="26.5" y2="62.4"/>
	<line class="st0" x1="84.4" y1="62.4" x2="88.7" y2="62.4"/>
	<line class="st0" x1="90.4" y1="62.4" x2="99.5" y2="62.4"/>
	<line class="st0" x1="90.4" y1="62.4" x2="88.7" y2="62.4"/>
	<line class="st0" x1="99.5" y1="62.4" x2="102.7" y2="62.4"/>
	<line class="st0" x1="35.4" y1="62.4" x2="36.1" y2="62.4"/>
	<line class="st0" x1="106" y1="62.4" x2="107.8" y2="62.4"/>
	<line class="st0" x1="60.1" y1="62.4" x2="66.2" y2="62.4"/>
	<line class="st0" x1="102.7" y1="62.4" x2="106" y2="62.4"/>
	<line class="st0" x1="66.2" y1="62.4" x2="67.5" y2="62.4"/>
	<line class="st0" x1="50.6" y1="62.4" x2="60.1" y2="62.4"/>
	<line class="st0" x1="78.8" y1="62.4" x2="84.4" y2="62.4"/>
	<line class="st0" x1="26.5" y1="62.4" x2="35.4" y2="62.4"/>
	<line class="st0" x1="129.1" y1="62.4" x2="115.4" y2="62.4"/>
	<line class="st0" x1="36.1" y1="62.4" x2="50.6" y2="62.4"/>
	<line class="st0" x1="107.8" y1="62.4" x2="115.4" y2="62.4"/>
	<line class="st0" x1="67.5" y1="62.4" x2="78.8" y2="62.4"/>
</g>
</svg>
