<?xml version="1.0" encoding="UTF-8"?>
<svg id="Layer_1" data-name="Layer 1" xmlns="http://www.w3.org/2000/svg" viewBox="0 0 800 600">
  <defs>
    <style>
      .cls-1 {
        fill: #231f20;
      }

      .cls-2 {
        fill-rule: evenodd;
      }
    </style>
  </defs>
  <g>
    <path class="cls-2" d="m528.22,184.93h21.96c4.83,5.7,8.21,12.87,12.29,19.33,7.88-5.73,14.15-13.09,21.53-19.33h22.84c.92.82-1.75,3.18-3.08,4.39-10.51,9.58-22.29,20.99-32.94,30.75h-21.53c-7.88-10.86-14.11-23.37-21.08-35.14h0Z"/>
    <path class="cls-2" d="m610.35,241.58c-2.47,9.96-5,20.25-8.35,29.34-6.19-2.8-8.05-4.12-12.73-6.51-7.67-3.91-20.68-7.79-33.82-7.47-12.07.29-27.3,3.76-26.35,15.37,1.01,12.36,23.13,14.49,33.38,17.56,16.04,4.81,33,11.49,36.45,26.8,3.25,14.42-2.94,28.5-9.66,35.57-13.29,14.01-34.96,17.2-63.69,18.01-80.06,2.23-164.71-1.3-243.31,0-1.74-2.65-3.13-5.65-4.39-8.79h236.72c7.26,2.87,20.69-4.41,7.03-5.27-40.02-1.46-79.74,0-119.45,0h-127.36c-6.15-12.59-12.74-24.74-18.89-37.32h-18.44c-5.03,15.32-8.02,32.68-11.86,49.18h-34.25c9.73-44.72,20.61-88.31,30.3-133.08,38.9-.01,87.09-7.37,100.14,19.33,11.2,22.92-6.34,44.9-22.4,53.15-3.44,1.77-6.74,2.81-10.54,3.95,5.45,11.68,11.74,22.51,18.01,33.38,12.64-.35,23.96.64,36.45.43-3.56-22.51,4.08-44.42,8.79-64.12,3.73-15.67,7.39-30.97,10.54-46.11h34.69c-5.5,24.8-11.1,48.73-17.13,74.66-2.78,11.91-6.23,27.19,3.95,32.94,8.61,4.86,21.95,3.15,28.98-.88,15.23-8.7,17.28-36.44,21.96-56.65,4.08-17.66,8.6-35.37,11.42-50.06h34.7c-9.93,36.93-14.06,79.64-29.87,110.68,23.74.38,56.82.79,83,0,13.2-.4,34.5-1.33,30.3-18.01-1.87-7.46-18.42-11.22-28.11-14.06-19.51-5.69-40.66-12-42.16-34.7-3.39-51.11,76.77-53.95,115.95-37.34h-.04Zm-368.04,53.59c23.45,2.39,46.6-2.7,45.68-21.96-.78-16.45-19.72-13.49-37.32-13.61-3.07,11.58-5.6,23.68-8.34,35.57h-.01Z"/>
    <path class="cls-2" d="m189.61,373.34h361.89c-8.05,6.31-19.01,5.27-33.38,5.27H189.61v-5.27Z"/>
  </g>
  <g>
    <path class="cls-1" d="m200.32,396.22c1.95,0,3.34.43,4.16,1.28.62.65.92,1.47.92,2.46,0,.34-.03.7-.1,1.08l-.36,2c-.21,1.11-.56,2.01-1.07,2.7s-1.07,1.17-1.68,1.46l2.34,7.5h-5.19l-2.16-6.91h-1.59l-1.05,6.91h-4.93l3.26-18.49h7.45Zm-1.62,4.01h-1.93l-.67,4.47h1.8c.91,0,1.56-.22,1.95-.66.39-.44.59-1.01.59-1.73,0-1.39-.58-2.08-1.75-2.08Z"/>
    <path class="cls-1" d="m215.6,414.71l.15-4.03h-4.29l-1.26,4.03h-4.9l6.6-18.49h8.47l.1,18.49h-4.88Zm-1.05-13.99l-2.03,6.52h3.36l.28-6.52h-1.62Z"/>
    <path class="cls-1" d="m233.36,396.22c2.24,0,3.84.57,4.8,1.69.7.86,1.05,1.93,1.05,3.21,0,.46-.04.95-.13,1.46l-1,5.73c-.34,1.93-1.18,3.48-2.52,4.65-1.34,1.16-3.06,1.75-5.19,1.75h-7.47l3.26-18.49h7.19Zm-1.62,4.01h-1.67l-1.82,10.48h2.44c.8,0,1.43-.22,1.89-.66.45-.44.77-1.15.94-2.14l.74-4.21c.07-.38.1-.72.1-1.03,0-1.63-.87-2.44-2.62-2.44Z"/>
    <path class="cls-1" d="m249,414.71l.15-4.03h-4.29l-1.26,4.03h-4.9l6.6-18.49h8.47l.1,18.49h-4.88Zm-1.05-13.99l-2.03,6.52h3.36l.28-6.52h-1.62Z"/>
    <path class="cls-1" d="m275.23,413.36c-1.36,1.14-3.28,1.71-5.76,1.71s-4.2-.57-5.16-1.72c-.68-.79-1.03-1.87-1.03-3.26,0-.62.07-1.29.21-2.03l2.08-11.84h4.62l-2.08,11.73c-.07.43-.1.87-.1,1.34,0,1.2.72,1.8,2.16,1.8.86,0,1.54-.22,2.05-.67.51-.44.87-1.27,1.08-2.46l2.08-11.73h4.62l-2.08,11.84c-.43,2.4-1.32,4.16-2.68,5.3Z"/>
    <path class="cls-1" d="m290.93,396.22c1.95,0,3.34.43,4.16,1.28.62.65.92,1.47.92,2.46,0,.34-.03.7-.1,1.08l-.23,1.23c-.19.98-.55,1.74-1.09,2.29s-1.01.82-1.43.82l-.03.2c.48,0,.97.27,1.46.8.5.53.74,1.15.74,1.87,0,.29-.03.6-.1.92l-.15.8c-.27,1.47-.93,2.63-1.96,3.47-1.04.84-2.48,1.26-4.33,1.26h-8.58l3.26-18.49h7.45Zm-2.31,10.94h-2.44l-.62,3.54h2.54c.79,0,1.41-.18,1.87-.55.46-.37.69-.82.69-1.35,0-1.1-.68-1.64-2.05-1.64Zm.69-6.93h-1.93l-.67,3.82h1.9c1.64,0,2.46-.72,2.46-2.16,0-.5-.15-.9-.45-1.21-.3-.31-.74-.46-1.32-.46Z"/>
    <path class="cls-1" d="m305.13,402.72l4.34-6.5h4.62l-7.91,11.37-1.26,7.11h-4.65l1.26-7.11-3.9-11.37h4.9l2,6.5h.59Z"/>
    <path class="cls-1" d="m331.03,400.23h-6.32l-2.54,14.48h-4.65l2.54-14.48h-6.34l.72-4.01h17.31l-.72,4.01Z"/>
    <path class="cls-1" d="m340.59,396.04c4.13,0,6.19,1.69,6.19,5.06,0,.57-.06,1.17-.18,1.82l-.9,5.14c-.41,2.38-1.3,4.14-2.67,5.29-1.37,1.15-3.3,1.72-5.78,1.72s-4.21-.57-5.19-1.72c-.67-.79-1-1.87-1-3.26,0-.62.07-1.29.21-2.03l.9-5.14c.8-4.59,3.61-6.88,8.42-6.88Zm-2.64,15.05c.86,0,1.54-.22,2.05-.67.51-.44.87-1.27,1.08-2.46l.87-4.93c.05-.34.08-.65.08-.92,0-1.39-.7-2.08-2.11-2.08-1.76.03-2.82,1.04-3.16,3l-.87,4.93c-.07.43-.1.87-.1,1.34,0,1.2.72,1.8,2.16,1.8Z"/>
    <path class="cls-1" d="m355.02,410.21l4.88-13.99h5.01l-7.01,18.49h-8.22l-.21-18.49h5.03l-.08,13.99h.59Z"/>
    <path class="cls-1" d="m372.63,414.71l.15-4.03h-4.29l-1.26,4.03h-4.9l6.6-18.49h8.47l.1,18.49h-4.88Zm-1.05-13.99l-2.03,6.52h3.36l.28-6.52h-1.62Z"/>
    <path class="cls-1" d="m397.46,396.22l-3.24,18.49h-4.65l-3.24-10.12-1.75,10.12h-4.65l3.26-18.49h4.78l3.18,9.45,1.67-9.45h4.62Z"/>
    <path class="cls-1" d="m406.78,402.72l4.34-6.5h4.62l-7.91,11.37-1.26,7.11h-4.65l1.26-7.11-3.9-11.37h4.9l2,6.5h.59Zm2.49-8.73h-3.8l4.21-6.14h4.62l-5.03,6.14Z"/>
    <path class="cls-1" d="m420.87,415.07c-2.45,0-4.14-.53-5.08-1.59-.65-.75-.98-1.81-.98-3.16,0-.58.06-1.21.18-1.87l1.05-5.91c.77-4.33,3.55-6.5,8.34-6.5,1.99,0,3.49.42,4.52,1.27s1.54,2.01,1.54,3.48c0,.68-.1,1.37-.3,2.04-.2.68-.39,1.18-.58,1.5l-.28.51h-4.54c.56-.65.85-1.58.85-2.77,0-.63-.16-1.13-.49-1.5-.33-.37-.81-.55-1.44-.55-1.73,0-2.76.96-3.08,2.88l-.9,5.19c-.09.45-.13.88-.13,1.31,0,1.13.68,1.69,2.03,1.69,1.63,0,2.6-.92,2.93-2.75h4.62l-.13.74c-.68,3.99-3.4,5.98-8.14,5.98Z"/>
    <path class="cls-1" d="m448.5,396.22l-3.24,18.49h-4.65l1.18-6.68h-5.01l-1.16,6.68h-4.65l3.26-18.49h4.62l-1.39,7.81h5.01l1.39-7.81h4.62Z"/>
    <path class="cls-1" d="m459.95,409.44c0,1.18.85,1.77,2.55,1.77s2.56-.53,2.56-1.59c0-.57-.29-1.03-.87-1.39-.58-.36-1.29-.66-2.12-.9-.83-.24-1.66-.52-2.49-.83s-1.54-.81-2.12-1.49c-.58-.68-.87-1.52-.87-2.53,0-4.3,2.76-6.44,8.29-6.44,2.02,0,3.55.38,4.58,1.14,1.04.76,1.55,1.82,1.55,3.17,0,.5-.06.97-.19,1.43-.13.45-.26.77-.4.96l-.21.31h-4.54c.38-.39.56-.89.56-1.49,0-1.11-.73-1.67-2.18-1.67-1.83,0-2.75.58-2.75,1.75,0,.58.29,1.05.87,1.39.58.34,1.29.61,2.12.81.83.2,1.66.44,2.5.73.84.29,1.55.77,2.13,1.45.58.68.87,1.55.87,2.63,0,2.17-.65,3.79-1.95,4.84s-3.3,1.58-6.01,1.58-4.55-.48-5.55-1.44c-.74-.72-1.1-1.71-1.1-2.98,0-.48.05-1,.15-1.57l.08-.41h4.62l-.05.31c-.03.17-.05.33-.05.46Zm3.29-15.46v-.03l-2.03-6.11h3.67l1.21,3.03,2.31-3.03h3.67l-4.21,6.11.03.03h-4.65Z"/>
    <path class="cls-1" d="m489.99,400.23h-6.32l-2.54,14.48h-4.65l2.54-14.48h-6.34l.72-4.01h17.31l-.72,4.01Z"/>
    <path class="cls-1" d="m502.31,413.36c-1.36,1.14-3.28,1.71-5.76,1.71s-4.2-.57-5.16-1.72c-.68-.79-1.03-1.87-1.03-3.26,0-.62.07-1.29.21-2.03l2.08-11.84h4.62l-2.08,11.73c-.07.43-.1.87-.1,1.34,0,1.2.72,1.8,2.16,1.8.86,0,1.54-.22,2.05-.67.51-.44.87-1.27,1.08-2.46l2.08-11.73h4.62l-2.08,11.84c-.43,2.4-1.32,4.16-2.68,5.3Z"/>
    <path class="cls-1" d="m517.75,396.22c2.24,0,3.84.57,4.8,1.69.7.86,1.05,1.93,1.05,3.21,0,.46-.04.95-.13,1.46l-1,5.73c-.34,1.93-1.18,3.48-2.52,4.65-1.34,1.16-3.06,1.75-5.19,1.75h-7.47l3.26-18.49h7.19Zm-1.62,4.01h-1.67l-1.82,10.48h2.44c.8,0,1.43-.22,1.89-.66.45-.44.77-1.15.94-2.14l.74-4.21c.07-.38.1-.72.1-1.03,0-1.63-.87-2.44-2.62-2.44Z"/>
    <path class="cls-1" d="m537.37,414.71h-12.89l3.26-18.49h12.89l-.72,4.01h-8.27l-.59,3.47h6.83l-.72,4.01h-6.83l-.51,3h8.27l-.72,4.01Z"/>
    <path class="cls-1" d="m557.83,396.22l-3.24,18.49h-4.65l-3.24-10.12-1.75,10.12h-4.65l3.26-18.49h4.78l3.18,9.45,1.67-9.45h4.62Z"/>
    <path class="cls-1" d="m576.52,400.23h-6.32l-2.54,14.48h-4.65l2.54-14.48h-6.34l.72-4.01h17.31l-.72,4.01Z"/>
    <path class="cls-1" d="m586.07,396.04c4.13,0,6.19,1.69,6.19,5.06,0,.57-.06,1.17-.18,1.82l-.9,5.14c-.41,2.38-1.3,4.14-2.67,5.29-1.37,1.15-3.3,1.72-5.78,1.72s-4.21-.57-5.19-1.72c-.67-.79-1-1.87-1-3.26,0-.62.07-1.29.21-2.03l.9-5.14c.8-4.59,3.61-6.88,8.42-6.88Zm-2.64,15.05c.86,0,1.54-.22,2.05-.67.51-.44.87-1.27,1.08-2.46l.87-4.93c.05-.34.08-.65.08-.92,0-1.39-.7-2.08-2.11-2.08-1.76.03-2.82,1.04-3.16,3l-.87,4.93c-.07.43-.1.87-.1,1.34,0,1.2.72,1.8,2.16,1.8Z"/>
    <path class="cls-1" d="m600.5,410.21l4.88-13.99h5.01l-7.01,18.49h-8.22l-.21-18.49h5.03l-.08,13.99h.59Z"/>
  </g>
</svg>