<?xml version="1.0" encoding="utf-8"?>
<!-- Generator: Adobe Illustrator 27.2.0, SVG Export Plug-In . SVG Version: 6.00 Build 0)  -->
<svg version="1.1" xmlns="http://www.w3.org/2000/svg" xmlns:xlink="http://www.w3.org/1999/xlink" x="0px" y="0px"
	 viewBox="0 0 267.3 177.1" style="enable-background:new 0 0 267.3 177.1;" xml:space="preserve">
<style type="text/css">
	.st0{display:none;}
	.st1{display:none;fill:#FFFFFF;}
	.st2{fill:#FFFFFF;}
	.st3{fill:#929799;}
	.st4{fill:url(#SVGID_1_);}
	.st5{fill:#EE3124;}
	.st6{fill:#0068A3;}
</style>
<g id="GRADIENT">
</g>
<g id="OVOCIE_POD_LOGOM">
</g>
<g id="LOGO_3_">
	<g id="BUDIS-FIN">
		<path class="st0" d="M-1862.9,834.6c8.2,0,13.4-6,13.4-14.3v-13c-6.1-1.1-20.8-1.1-26.9,0v13
			C-1876.4,828.7-1871.1,834.6-1862.9,834.6z"/>
		<path class="st1" d="M-1854.3,813.4c-0.5-2-5.2-0.5-5-4c0.8,0.2,1,0.8,1.2,1.5C-1856.2,811.2-1854,811.5-1854.3,813.4z
			 M-1851.7,818.8c-0.7,0.3-1.6,0.1-1.9-0.1c-0.5-2,1.4-3.5-0.1-5.2c2.3,0.4,0.9,3,0.7,5C-1852.4,818.1-1852,818.4-1851.7,818.8z
			 M-1851.7,819.8c-0.8,1.6-4.5,1.8-4.5-0.8c0-1.4,1-2.6,2-3.3c-0.5,0.7-1.3,1.9-1.3,2.8C-1855.4,820.6-1853.2,820.7-1851.7,819.8z
			 M-1859.1,818.1c2-0.6,3-2.4,0.9-5.8C-1855.3,814-1855.5,818.7-1859.1,818.1z M-1858.7,815.4c-0.1-1.1-0.9-1.7-1.4-1.9l0.2-0.5
			C-1859.1,813.3-1858.3,814.1-1858.7,815.4z M-1863.5,815l-0.3-0.8l2-0.6c0.4-1,1.4-2,3.2-2C-1861.4,812.5-1860.6,814.2-1863.5,815
			z M-1859.5,815.2c-0.7,0.3-1.5,0.3-2-0.5l0.6-0.5C-1860.8,814.8-1860.3,815.1-1859.5,815.2z M-1855.4,823.5c-2,0-2.8-1.6-2.8-2.9
			c0-0.9,0.4-1.6,1.1-2c-0.3,0.4-0.5,0.9-0.5,1.6c0,1.9,1.8,3.1,3.6,2.4c-0.1-0.5-0.1-1.1,0.9-1
			C-1853.3,822.5-1853.9,823.5-1855.4,823.5z M-1865.5,816.3c1.1-1.1,0.9-3.4-0.1-4.1C-1866.3,813-1866.2,815-1865.5,816.3z
			 M-1859.5,819.4c-3.3,1.4-5-0.1-4.8-1.8l1.2-0.5l-0.8-1.3l0.4-0.5c0.5,0.6,0.7,1.2,0.9,1.9c-0.3,0.4-0.7,0.7-1.2,0.9
			C-1863.3,819.1-1862,819.6-1859.5,819.4z M-1868,813.3c-1,0.7-2.7,0.3-3.3-0.3l0.2-1.4c1.1-0.8,3.2-0.8,3.5-0.1
			c-1.3-0.2-2.8,0.1-3.2,1.2c0.7,0.3,2,0.4,2.9-0.1L-1868,813.3z M-1862.5,829.1c-0.1-2.6,3.7-5.2,1.2-8.4c3.3,2.3-0.1,5.4-0.3,8.1
			L-1862.5,829.1z M-1861.5,824.3c-4.5,0.5-7.6-2.6-7.6-5.2c0-1.2,0.5-2.5,2.4-2.7c-2.2-0.7-3.3-0.5-4.3-0.5c-2.9,0-2.4-3.7-0.5-3.7
			c-1,0.8-1.1,2.4-0.3,3.2c1.1-0.2,3.9-0.2,5.8,0.7c-1-0.8-0.9-3.2-0.3-4.3h1.4c0.8,1.6,1.1,3.7-0.3,5.4c-0.9-0.1-2.2-0.1-2.8,0.3
			C-1869,821.2-1865.8,824-1861.5,824.3z M-1874.1,823.2l-0.7-0.3c0.6-1.2,1.7-2.2,2.9-2.7c-0.3-1.3,0.3-3.2,1.4-3.8
			c-0.5,1.1-0.8,2.4-0.6,3.4c0.5-0.1,1.2-0.2,1.7-0.1C-1871,820.4-1873,821.5-1874.1,823.2z"/>
		<path class="st2" d="M32.6,125.8c-7.2-1.2-13.1-3.8-18.1-8l-2.2-1.9l1.8-2.3c3.2-4.2,6.6-7.8,12-11.4L13.1,54.5l2.2-1.1
			c28.6-14,64.4-24,101.1-28.2V10.6l2.5-0.4c4.2-0.7,10.4-1.1,16.9-1.1c6.5,0,12.6,0.4,16.9,1.1l2.5,0.4v12.7
			c33.2,0.4,59.9,6.6,77.7,18.1l4.2-2.7l1.6,1c4.2,2.6,6.3,6.9,5.7,11.1c9.3,9.7,14,21.6,14,35.4c0,20.3-10.3,54.3-79.4,54.3
			c-22.9,0-50.3-3.6-50.3-20.5c0-1.3,0.2-2.9,0.9-4.6c-32.4,8.8-57.1,24-83.4,43.9l-3.5,2.7L32.6,125.8z"/>
		<path class="st3" d="M240.9,51.6c1.2-3.3-0.1-7.1-3.9-9.5l-4.2,2.8c-17.7-12.1-45.2-18.7-80.7-18.7V13.1c-8.5-1.4-24.2-1.4-32.7,0
			V28C84.2,31.7,47,41.3,16.7,56.1l13,47.4c-6,3.7-9.5,7.2-13.1,11.9c4.8,4.1,10.7,6.7,18.5,7.6l9.3,33.8
			c29.7-22.5,57-38.5,93.7-46.7c-4,2.6-6.3,5.8-6.3,9.8c0,11.5,16.8,17.5,47.3,17.5c51.1,0,76.4-19.4,76.4-51.3
			C255.3,72.4,250.3,60.8,240.9,51.6z"/>
		<linearGradient id="SVGID_1_" gradientUnits="userSpaceOnUse" x1="57.0862" y1="162.7444" x2="201.8225" y2="12.8655">
			<stop  offset="5.728604e-02" style="stop-color:#00AEEF"/>
			<stop  offset="6.031810e-02" style="stop-color:#00AAEB"/>
			<stop  offset="0.1189" style="stop-color:#0086C2"/>
			<stop  offset="0.1794" style="stop-color:#0069A4"/>
			<stop  offset="0.2405" style="stop-color:#00528E"/>
			<stop  offset="0.3025" style="stop-color:#00417D"/>
			<stop  offset="0.3655" style="stop-color:#073271"/>
			<stop  offset="0.4299" style="stop-color:#132769"/>
			<stop  offset="0.4968" style="stop-color:#182064"/>
			<stop  offset="0.5699" style="stop-color:#191D63"/>
		</linearGradient>
		<path class="st4" d="M237,52c1.4-1.2,1.6-4.1-0.9-6l-3.6,2.3c-17.3-12.7-45.2-19.3-80.3-19c-0.4,9.2-6.7,16-16.3,16
			c-9.1,0-15.2-6.1-16.2-14.5C88,34,51.8,42.5,20.2,57.7l12.7,46.5c-5,3.1-9.3,6.7-12,10.1c4,2.9,9.4,5,16.3,5.5l8.8,32.1
			c42.4-33.1,85.3-49.5,133-49.5c30.5,0,47.3,6,47.3,17.5c0,3.2-1.3,6.5-5.2,9c20.8-9,31.3-23.7,31.3-42.9
			C252.3,72.3,246.9,60.9,237,52z"/>
		<g>
			<path class="st2" d="M174.2,86.6c6.3,0,10.1-3.5,13-7.4v-2.3c-1.4,2.8-3.6,5.4-6,5.4c-2,0-2.9-1.1-2.9-3.8V49.8
				c0-5,0.5-8.1,1.5-10l-7.5-0.6c-3.6-0.3-5.3,1.2-5.3,4.8v35.3C166.9,83.7,169.3,86.6,174.2,86.6z"/>
			<path class="st2" d="M157.3,87.8c6.9,0,9.9-6,10.6-9h-1c-0.5,2-2,3.3-3.9,3.3c-3.2,0-5-2.4-5-8.3v-6.6c0-5.9,1.8-8.3,5-8.3
				c2,0,3.5,1.4,3.9,3.3h0.8c-1.2-5-4.1-9-9.5-9c-6.9,0-11.5,5.3-11.5,14.6v5.4C146.7,83.3,150.5,87.8,157.3,87.8z"/>
			<path class="st2" d="M136.3,88.7c6.8,0,10.7-3.6,13.9-8.7H149c-1.2,2-3,3.9-5.4,3.9c-2.1,0-3.2-1.3-3.4-3.9L139,63.4
				c-0.3-5,0-8.1,0.9-10.1l-8.7,0.9c-3.6,0.4-5.2,2.1-5,5.7l1.4,23.1C127.8,86,130.5,88.7,136.3,88.7z"/>
			<path class="st2" d="M114.7,92.9c6.2,0,11-4.5,14-10.4l-0.5-1.5c-1.5,3.3-3.7,5.2-5.8,5.2c-1.5,0-2.9-0.7-3.2-3.8l-2.1-16.7
				c-0.6-4.8-0.6-8,0.3-10l-8.6,1.5c-3.5,0.6-5,2.6-4.5,6.2l2.6,21.6C107.5,90.2,109.6,92.9,114.7,92.9z"/>
			<path class="st2" d="M26.7,112.6c4.7,3.8,11.3,5.7,19.9,5.7c22.8,0,55.8-10.4,55.8-30.5c0-8.6-8-14.5-18.8-11.2l-3.3,2.7
				c10.4-3.6,14.6-9,14.6-14.8c0-10.9-10.4-13.4-30.6-6.8c-5.4,1.8-11.3,3.9-16.4,5.9c2,1.5,3.1,5.3,4.4,11.6l5,25.2
				c0.5,2.4,1.1,5.1,1.2,7.2c4.8,2.1,13.1,1.5,16.7-0.8c-0.5-1.2-0.9-3-1.2-4.7l-8.4-44.2L62,60.5l6.2-2c7.2-2.3,10.7,0.5,12.1,9.3
				c1.4,8.1-1.2,11.8-8.3,14L68.5,83l0.3,1.7l3.4-1.1c9.5-2.9,15.7,1.7,15.7,11.2c0,11.9-11.5,18.8-25.2,18.8
				c-9,0-16.9-4.1-23.4-11.6C34.5,104.8,29.7,108.8,26.7,112.6z"/>
			<path class="st2" d="M216.4,91.6c5.3,0,8.9-2.9,8.9-7.5c0-8.7-10.7-11.8-10.7-16c0-1.5,1.1-2.4,3-2.4c3.8,0.2,6.2,3.1,5.9,6.6
				l4,2c-1.4-7.5-8-10.9-13.8-10.9c-5.3,0-9,2.3-9,6.6c0,6.2,11.2,11.9,11.2,16c0,1.8-1.4,2.6-3.2,2.6c-3.6,0-8.3-2.7-10-6.3
				c-0.7,1.4-2.3,2.1-3.6,2.1c-1.8,0-2.3-1.1-2.3-3.5l0.5-14.2c0.2-3.1,0.7-5.9,1.9-7.7l-7.7-1.2c-3.5-0.5-5.1,0.6-5.3,4.2
				l-0.8,18.7c-0.2,4.1,2.4,7.2,7.7,7.2c5.3,0,12.2-4.5,12.2-8.9c0-1.6-0.9-2.7-2.4-2.7c-1.4,0-2.4,0.9-2.4,2.7
				C200.5,83.7,207.5,91.6,216.4,91.6z"/>
			<path class="st2" d="M218.6,61.3L234.2,51c1.7-1.1,2-1.8,1.5-2.9l-12.7,8.1l2.8-0.5l-5.1-5.2c-2-2-2.1-3.6-2.3-4.7l-6.2,3.5
				c-1.9,1.1-2,2.8-0.7,4.3L218.6,61.3z"/>
			<path class="st2" d="M194.4,53.5c3.6,0,6.3-2.4,6.3-6c0-3.1-2.3-5.4-5.7-5.4c-3.5,0-6.3,2.6-6.3,6
				C188.7,51.3,190.9,53.5,194.4,53.5z"/>
		</g>
		<path class="st3" d="M215.6,89.9c3.5,1.1,8.3-0.8,8.3-5.6c0-8-10.7-10.4-10.7-16.3c0-0.9,0.5-2.1,1.2-2.7
			c-1.2,0.3-1.8,1.7-1.8,2.9c0,6,10.6,8.7,10.6,16C223.2,88.9,218.8,90.4,215.6,89.9z M196.2,84.6c-0.8-1.1-0.8-2.9-0.8-4.4
			l0.5-11.3c0.2-3.6,0.5-6.3,1.2-8.4c-1.7,1.8-1.8,5.3-2,8.1L194.7,80C194.6,82.1,195,83.6,196.2,84.6z M177.8,83
			c-0.9-1.1-0.9-2.9-0.9-4.1V50.1c0-3.6,0.3-6.3,1.1-8.6c-1.5,2.1-1.8,5.4-1.8,8.1v28.8C176.1,81.2,176.7,82.2,177.8,83z
			 M197.1,85.7l-0.5-0.5c-1.7,0.6-4.8,0.9-6.6,0.2C192.3,86.9,195.3,86.5,197.1,85.7z M171.3,84.3c1.8,1.1,5.6,1.1,8.1-0.2l-0.6-0.3
			C176.4,84.6,173.4,84.8,171.3,84.3z M160.3,83.3c-3-1.8-3.6-6-3.6-9.2v-7.4c0-5.8,1.8-9.3,6.9-9.3c-5-0.8-7.7,2.4-7.7,9.2v7.1
			C155.9,78,157,82.1,160.3,83.3z M153.4,85.2c2.4,1.5,7.1,1.5,9.6-1.1l-0.9-0.2C159.7,86.1,155.6,86.1,153.4,85.2z M140.4,84.2
			c-1.2-1.4-1.6-3.3-1.7-5l-1.1-15.5c-0.2-3.3-0.2-6,0.3-8c-1.2,2-1.3,4.1-1.1,7.7l1.1,15.5C138.1,81.5,138.7,83,140.4,84.2z
			 M132.4,86.1c3,1.7,7.5,1.2,10.7-0.6l-0.9-0.2C139.2,86.9,134.4,87.1,132.4,86.1z M119.6,88c-0.9-0.9-1.3-2.1-1.5-4.1l-2.3-17.6
			c-0.5-3.5-0.5-5.9-0.3-7.8c-0.6,1.7-1,3.6-0.5,7.5l2.3,17.9C117.6,85.8,118.2,87.1,119.6,88z M111.8,90.7c2.9,1.4,7.1,0.9,10-1.5
			l-0.8-0.3C118.1,91.1,114.6,91.3,111.8,90.7z M84.5,76.2c3.8-1.5,9-5.3,9-11.9c0-3.5-1.5-5.9-4.4-6.9c2.4,0.8,3.6,3.9,3.6,7.1
			C92.8,70.5,87.8,74.1,84.5,76.2z M90.4,104.8c6-3.8,10.7-9.2,10.7-16.7c0-5-2.4-7.4-5.9-9.3c3.2,2,5.1,5.3,5.1,9.3
			C100.3,95.5,95.9,100.6,90.4,104.8z M85.4,83.4c-1.7-1.8-3.8-2.6-5.7-2.9l-0.8,0.6C81.3,81.2,83.4,81.9,85.4,83.4z M49.6,112.1
			c-3.3-1.8-6.9-4.1-10.1-7.5l-0.9,0.6C42.3,108.6,46,110.7,49.6,112.1z M64.3,115.4c-10.6,1.1-22.2,1.5-30.6-0.8
			C42,117.5,53.7,117.1,64.3,115.4z M61.2,106.5c3,1.1,6.3,1.6,12.2-0.4c-0.3-1.1-0.7-2.3-0.9-3.5l-8.1-42.6l-0.8,0.2l7.9,42.2
			c0.2,1.1,0.5,2.3,0.8,3.3C69.1,107.2,64.4,107.4,61.2,106.5z M218.9,58.6l4.7-2.9l-4.2-4.4c-1.3-1.4-1.7-2-2-3.2
			c0,0.8,0.3,2,1.4,3.2l3.8,4.1l-4.2,2.6L218.9,58.6z M192.3,51.2c4.5,2.9,8.9-3.5,4.4-7.1C199.6,47.8,197.2,52.7,192.3,51.2z"/>
		<path class="st5" d="M135.8,42.8c8.2,0,13.4-6,13.4-14.3v-13c-6.1-1.1-20.8-1.1-26.9,0v13C122.3,36.8,127.5,42.8,135.8,42.8z"/>
		<path class="st2" d="M144.3,21.5c-0.5-2-5.2-0.5-5-4c0.8,0.2,1,0.8,1.2,1.5C142.5,19.3,144.6,19.6,144.3,21.5z M146.9,27
			c-0.7,0.3-1.6,0.1-1.9-0.1c-0.5-2,1.4-3.5-0.1-5.2c2.3,0.4,0.9,3,0.7,5C146.3,26.3,146.6,26.5,146.9,27z M147,27.9
			c-0.8,1.6-4.5,1.8-4.5-0.8c0-1.4,1-2.6,2-3.3c-0.5,0.7-1.3,1.9-1.3,2.8C143.3,28.7,145.5,28.8,147,27.9z M139.6,26.3
			c2-0.6,3-2.4,0.9-5.8C143.3,22.2,143.1,26.8,139.6,26.3z M139.9,23.6c-0.1-1.1-0.9-1.7-1.4-1.9l0.2-0.5
			C139.6,21.5,140.3,22.3,139.9,23.6z M135.1,23.1l-0.3-0.8l2-0.6c0.4-1,1.4-2,3.2-2C137.3,20.7,138,22.4,135.1,23.1z M139.1,23.4
			c-0.7,0.3-1.5,0.3-2-0.5l0.6-0.5C137.9,22.9,138.4,23.2,139.1,23.4z M143.3,31.7c-2,0-2.8-1.6-2.8-2.9c0-0.9,0.4-1.6,1.1-2
			c-0.3,0.4-0.5,0.9-0.5,1.6c0,1.9,1.8,3.1,3.6,2.4c-0.1-0.5-0.1-1.1,0.9-1C145.4,30.6,144.7,31.7,143.3,31.7z M133.1,24.5
			c1.1-1.1,0.9-3.4-0.1-4.1C132.3,21.1,132.5,23.2,133.1,24.5z M139.2,27.5c-3.3,1.4-5-0.1-4.8-1.8l1.2-0.5l-0.8-1.3l0.4-0.5
			c0.5,0.6,0.7,1.2,0.9,1.9c-0.3,0.4-0.7,0.7-1.2,0.9C135.4,27.2,136.7,27.8,139.2,27.5z M130.7,21.4c-1,0.7-2.7,0.3-3.3-0.3
			l0.2-1.4c1.1-0.8,3.2-0.8,3.5-0.1c-1.3-0.2-2.8,0.1-3.2,1.2c0.7,0.3,2,0.4,2.9-0.1L130.7,21.4z M136.1,37.2
			c-0.1-2.6,3.7-5.2,1.2-8.4c3.3,2.3-0.1,5.4-0.3,8.1L136.1,37.2z M137.1,32.5c-4.5,0.5-7.6-2.6-7.6-5.2c0-1.2,0.5-2.5,2.4-2.7
			c-2.2-0.7-3.3-0.5-4.3-0.5c-2.9,0-2.4-3.7-0.5-3.7c-1,0.8-1.1,2.4-0.3,3.2c1.1-0.2,3.9-0.2,5.8,0.7c-1-0.8-0.9-3.2-0.3-4.3h1.4
			c0.8,1.6,1.1,3.7-0.3,5.4c-0.9-0.1-2.2-0.1-2.8,0.3C129.7,29.3,132.9,32.2,137.1,32.5z M124.6,31.3l-0.7-0.3
			c0.6-1.2,1.7-2.2,2.9-2.7c-0.3-1.3,0.3-3.2,1.4-3.8c-0.5,1.1-0.8,2.4-0.6,3.4c0.5-0.1,1.2-0.2,1.7-0.1
			C127.6,28.5,125.7,29.6,124.6,31.3z"/>
		<path class="st5" d="M178.9,134.4c-28.5,0-44.3-5.2-44.3-14.5s15.8-14.5,44.3-14.5s44.3,5.2,44.3,14.5S207.4,134.4,178.9,134.4z"
			/>
		<g>
			<path class="st2" d="M153.3,121.1c0,1.1-0.9,1.8-2.3,1.8H149v-6.3h1.7c1.3,0,2.1,0.6,2.1,1.7c0,0.5-0.2,0.9-0.6,1.2
				C153,119.9,153.3,120.5,153.3,121.1z M150.3,119.3h0.5c0.5,0,0.9-0.3,0.9-0.8c0-0.5-0.3-0.8-0.9-0.8h-0.5V119.3z M152,121
				c0-0.5-0.4-0.8-1-0.8h-0.7v1.6h0.7C151.7,121.8,152,121.5,152,121z"/>
			<path class="st2" d="M154,119.8c0-1.9,1.4-3.3,3.3-3.3c1.9,0,3.3,1.4,3.3,3.3c0,1.9-1.4,3.2-3.3,3.2
				C155.4,123,154,121.7,154,119.8z M159.3,119.8c0-1.2-0.8-2.1-2-2.1c-1.1,0-2,0.9-2,2.1c0,1.2,0.9,2.1,2,2.1
				C158.5,121.8,159.3,121,159.3,119.8z"/>
			<path class="st2" d="M163.1,121.7h2.6v1.2h-4.5l2.7-5.1h-2.4v-1.2h4.3L163.1,121.7z M163.6,116.2l-1.5-1.3l0.7-0.7l0.8,0.7
				l0.8-0.7l0.6,0.7L163.6,116.2z"/>
			<path class="st2" d="M169.6,118.2c-0.2-0.4-0.5-0.6-0.9-0.6c-0.5,0-0.8,0.3-0.8,0.7c0,1.1,2.9,0.7,2.9,2.8c0,1.2-0.9,1.9-2.2,1.9
				c-1,0-1.9-0.4-2.3-1.3l1.1-0.6c0.2,0.5,0.7,0.7,1.2,0.7c0.5,0,0.9-0.2,0.9-0.7c0-1.2-2.9-0.7-2.9-2.9c0-1,0.8-1.8,2.1-1.8
				c0.8,0,1.6,0.3,1.9,1.1L169.6,118.2z"/>
			<path class="st2" d="M173.4,116.6v6.3h-1.3v-6.3H173.4z M177.4,122.9h-1.6l-2.5-3.3l2.5-3h1.5l-2.5,3L177.4,122.9z"/>
			<path class="st2" d="M181.9,121.8h-2.6l-0.5,1.1h-1.3l3.1-6.6l3.1,6.6h-1.3L181.9,121.8z M181.5,120.9l-0.9-2l-0.9,2H181.5z
				 M180.8,116.1l-0.7-0.5l1.1-1.7l1,0.8L180.8,116.1z"/>
			<path class="st2" d="M186.6,119.8c0-1.8,1.3-3.3,3.3-3.3c1,0,2.1,0.5,2.7,1.5l-1,0.6c-0.5-0.7-1.1-0.9-1.7-0.9
				c-1.1,0-1.9,0.9-1.9,2c0,1.2,0.8,2,1.9,2c0.7,0,1.3-0.3,1.7-0.9l1,0.6c-0.6,1.1-1.7,1.5-2.7,1.5C188,123,186.6,121.6,186.6,119.8
				z"/>
			<path class="st2" d="M198.6,116.6v6.3h-1.3v-2.6l-2.4,0v2.6h-1.3v-6.3h1.3v2.5h2.4v-2.5H198.6z"/>
			<path class="st2" d="M200.3,120.6v-4h1.3v3.9c0,0.9,0.5,1.4,1.2,1.4c0.8,0,1.2-0.5,1.2-1.4v-3.9h1.3v4c0,1.5-0.9,2.4-2.5,2.4
				C201.3,123,200.3,122,200.3,120.6z"/>
			<path class="st2" d="M207.7,117.8h-1.4v-1.2h4v1.2H209v5.1h-1.3V117.8z M206.9,114.9l0.7-0.7l0.8,0.7l0.8-0.7l0.6,0.7l-1.5,1.3
				L206.9,114.9z"/>
		</g>
		<path class="st6" d="M55.2,106.3l0.8,0.2c-0.1-1.2-0.4-3.2-1-6.1L50.1,76c-0.9-4.5-2-8.9-3.5-10.3c0.9,1.4,1.9,6.1,2.7,10.4
			l4.9,24.7C54.5,101.9,55.1,105.2,55.2,106.3z M201.5,87.9c5.4,6.1,15.1,8.8,21.4,4.7c-6.5,3.2-15.5,0.8-20.7-5.2L201.5,87.9z
			 M164.9,53.3v-9c0-2.9,0.9-4.7,2.6-6c-2.3,1.2-3.3,3.3-3.3,6.4v8C164.4,52.9,164.7,53,164.9,53.3z M182.7,79.7l0.8-0.8l0.7-17
			c0.1-2.5,0.6-3.5,1.5-4.9c-1.4,1.1-2.2,2.9-2.3,5.4L182.7,79.7z M183.8,86.2c3.1,5.3,10.2,5.7,15.5,2.8
			c-5.7,2.3-12.1,1.6-14.9-3.3L183.8,86.2z M163.7,80c0.7-0.3,1.2-1,1.2-3.1V63.3c0-2-1.7-2.5-3.1-1.4c1.1-0.4,2.3,0,2.3,1.9v14
			C164.1,79.2,164.1,79.6,163.7,80z M166.2,86.4c3.5,4.1,11.3,3.8,15.4,1.1c-4.5,2.3-11.6,2.3-14.9-1.7L166.2,86.4z M144.8,81.3
			l0.8-0.5c-0.5-2.1-0.8-4.6-0.8-7.5V68c0-6.1,1.9-11.9,6.5-14.9c-5.1,2.8-7.2,8.4-7.2,14.6v6.1C143.9,76.7,144.2,79.1,144.8,81.3z
			 M147.8,87c3.7,4.2,10.9,4.9,15.4,1.8c-4.4,2.5-11.2,1.8-14.8-2.3L147.8,87z M124.8,83.4l0.8-1.1l-1.4-22
			c-0.2-3.2,0.8-5.4,2.7-6.7c-2.4,1.2-3.7,3.6-3.5,7.1L124.8,83.4z M127.7,88.9c4.1,4.1,12.8,3.5,17.1,0.3c-4.7,2.7-12.6,3-16.7-0.9
			L127.7,88.9z M104.3,87.3c1.1,8.6,9.3,11.1,17.9,6.2c-8.7,4.3-16.3,1.7-17.3-6.7l-2.7-22.7c-0.4-3.3,0.5-5.8,2.7-7.3
			c-2.8,1.4-3.8,4.1-3.4,7.8L104.3,87.3z M74.9,78.6c3.6-2,4.1-4.9,3.2-10.1c-1.1-6.9-3-9.6-9.1-7.5c5.7-1.3,7.3,1.2,8.4,8
			C78.3,73.5,78,76.3,74.9,78.6z M77.8,108c4.9-2.6,8.1-7.5,8.1-13c0-8-4.5-11.5-12.7-9c7.8-1.4,11.9,1.5,11.9,9.5
			C85.1,100.6,82,105.2,77.8,108z M38.7,120.4c20.7,2.2,50.7-4.7,62.9-21.1C90.2,116.5,59.3,123.6,38.7,120.4z M221.4,71.2
			c-0.3-2.1-2.1-3.3-4.4-2.9c1.9,0.1,3.2,1.2,3.5,2.6L221.4,71.2z M215.5,61l-5.2-5.8c-2-2.3-2.3-5.2,0.4-7.2
			c-3.5,1.9-3.4,5-1.1,7.6l4.6,5.2L215.5,61z M189.7,54.3c-4.4-2.7-4.1-9.9,1.1-12.9C184.8,43.6,184,52,189.7,54.3z M202.9,74.4h0.9
			c-2-4.1-1.4-8.7,2.5-11.2C202.1,65.2,200.8,69.9,202.9,74.4z M213,86.4c0.4,0,0.6-0.1,0.8-0.2c-0.2-1.4-3.5-4.4-6.9-7.8
			c0.1,0.5,0.1,0.9,0,1.4C209.3,81.9,212.6,85.2,213,86.4z M135.8,47.8c7.7,0,12.1-3,14.6-7.2c-3.2,3.8-7,6.5-14.6,6.5
			c-7.5,0-11.3-2.7-14.5-6.5C123.8,44.8,128.2,47.8,135.8,47.8z"/>
	</g>
</g>
<g id="OVOCIE_NAD_LOGOM">
</g>
<g id="PRICHUT__x2F__POKEC">
</g>
<g id="PECAT">
</g>
<g id="LEGAL">
</g>
<g id="bez_konzervantov">
</g>
<g id="EAN">
</g>
<g id="FOTO_TECH">
</g>
<g id="_x3C_Layer_x3E_">
</g>
<g id="SK_text">
</g>
<g id="Layer_1">
</g>
</svg>
